<svg id="Capa_1" enable-background="new 0 0 497.003 497.003" height="512" viewBox="0 0 497.003 497.003" width="512" xmlns="http://www.w3.org/2000/svg"><g id="_x3C_Group_x3E__44_"><path d="m451.657 456.309-405.38-6.372c-25.906 7.693-39.512-7.433-38.264-33.261l4.834-264.853 221.023 42.027 240.881-34.729 14.242 92.741 7.957 164.689c.429 8.884-1.731 17.271-5.805 24.451-7.77 13.694-22.498 23-39.488 15.307z" fill="#ab7b64"/><path d="m447.19 464.002-208.892-9.014-188.482 9.014v-278.201h397.374z" fill="#b78c7a"/><path d="m491.143 441.002c-7.77 13.7-22.5 23-39.49 23l-219.104-10.775-182.733 10.775h-4.463c-25.9 0-46.54-21.62-45.3-47.45l12.79-264.73h23.8l-13.61 265.84c-.3 6.13 1.87 11.95 6.11 16.4 4.26 4.48 10.02 6.94 16.21 6.94z" fill="#9a6a53"/><path d="m49.813 441.002h397.38v23h-397.38z" fill="#ab7b64"/><g fill="#9a6a53"><path d="m447.193 161.822v129.09c-14.4 7.44-30.74 11.65-48.03 11.65h-301.32c-17.29 0-33.63-4.21-48.03-11.65v-129.09z"/><path d="m488.993 251.862c-10.03 16.56-24.53 30.13-41.8 39.05v-129.09l36.97-10z"/><path d="m49.813 161.822v129.09c-17.27-8.92-31.77-22.49-41.8-39.05l4.83-100.04z"/></g><path d="m399.159 282.561h-301.312c-46.944 0-85-38.056-85-85v-45.738h102.296l23.099 7.459 12.094-7.459 87.961-16.101 91.471 16.101 17.597 7.459 17.597-7.459h119.197v45.738c0 46.944-38.056 85-85 85z" fill="#ab7b64"/><path d="m132.74 364.317c-9.718 0-12.484-9.702-12.484-19.421l-1.761-202.128 31.843 5.291v145.094l-9.494 22.128 9.494 10.31v21.128c-.002 9.719-7.88 17.598-17.598 17.598z" fill="#f7e5c1"/><path d="m347.365 364.317c-9.718 0-13.972-7.06-13.972-16.778l1.321-205.715h30.248v149.089l-6.908 23.379 6.908 11.301v21.128c0 9.717-7.878 17.596-17.597 17.596z" fill="#f7e5c1"/><g fill="#f4d9b1"><path d="m132.143 300.86v-152.038h-17v152.047 24.714 21.139c0 9.72 7.88 17.6 17.6 17.6.66 0 1.31-.04 1.95-.11-1.62-2.66-2.55-5.78-2.55-9.12v-24.5c0-2.761 2.239-5 5-5h13.181c.003-.003.005-.005.009-.009v-24.714c-.003-.003-.005-.005-.009-.009z"/><path d="m364.954 300.86h-18.181v-159.038h-17v159.047 24.714 21.139c0 9.72 7.87 17.6 17.59 17.6.66 0 1.31-.04 1.95-.11-1.61-2.66-2.54-5.78-2.54-9.12v-24.5c0-2.761 2.239-5 5-5h13.181c.003-.003.005-.005.009-.009v-24.714c-.003-.004-.005-.006-.009-.009z"/></g><path d="m329.769 148.059h-179.432c-8.33 0-15.083-6.741-15.083-15.057v-31.598c0-37.717 30.738-68.402 68.52-68.402h72.703c37.702 0 68.376 30.621 68.376 68.258v31.742c-.001 8.315-6.754 15.057-15.084 15.057zm-170.383-30.118h157.824v-16.686c0-21.033-19.736-40.947-40.805-40.947h-72.703c-21.148 0-44.316 19.979-44.316 41.092z" fill="#f7e5c1"/><path d="m276.473 48.002h-72.7c-29.51 0-53.52 23.96-53.52 53.4v31.61l.08.05h179.44l.08-.06v-31.74c0-29.37-23.95-53.26-53.38-53.26zm53.21 84.939h-179.26v-31.54c0-29.38 23.93-53.29 53.35-53.29h72.7c29.34 0 53.21 23.84 53.21 53.15z" fill="#f4d9b1"/><path d="m276.473 48.002h-72.7c-29.51 0-53.52 23.96-53.52 53.4v31.61l.08.05h179.44l.08-.06v-31.74c0-29.37-23.95-53.26-53.38-53.26zm53.21 84.939h-179.26v-31.54c0-29.38 23.93-53.29 53.35-53.29h72.7c29.34 0 53.21 23.84 53.21 53.15z" fill="#f4d9b1"/><path d="m276.473 48.112h-72.7c-29.42 0-53.35 23.91-53.35 53.29v31.54h179.26v-31.68c0-29.311-23.87-53.15-53.21-53.15zm38.21 69.829h-149.26v-16.54c0-21.11 17.2-38.29 38.35-38.29h72.7c21.07 0 38.21 17.12 38.21 38.15z" fill="#f4d9b1"/><path d="m469.159 114.181h-441.312c-8.284 0-11.078 5.771-11.078 14.055l2.422 17.615 463.927 1.101 1.041-15.129v-2.641c0-8.286-6.716-15.001-15-15.001z" fill="#f7e5c1"/><path d="m484.163 131.822v20h-471.32v-22.64c0-8.284 6.716-15 15-15h5v12.64c0 2.761 2.239 5 5 5z" fill="#f4d9b1"/><path d="m149.386 308.588h-33.293c-5.523 0-10-4.477-10-10v-31.193c0-5.523 4.477-10 10-10h33.293c5.523 0 10 4.477 10 10v31.193c0 5.522-4.477 10-10 10z" fill="#f7e5c1"/><path d="m364.012 308.588h-33.293c-5.523 0-10-4.477-10-10v-31.193c0-5.523 4.477-10 10-10h33.293c5.523 0 10 4.477 10 10v31.193c0 5.522-4.478 10-10 10z" fill="#f7e5c1"/></g></svg>